<svg width="1455" height="400" viewBox="0 0 1455 400" fill="none" xmlns="http://www.w3.org/2000/svg">
<path d="M1454.47 134.275V400H0V343.462C0 343.462 106.182 317.869 257.856 313.779C504.48 307.133 856.08 321.114 953.126 324.614C1109.86 330.269 1318.92 228.131 1318.92 228.131L1454.47 134.275Z" fill="#83219B"/>
<path d="M0.188531 328.483C0.188531 328.483 122.656 173.853 383.456 210.602C831.68 273.76 1140.26 375.971 1454.47 63.6064V134.278C1454.47 134.278 1242.66 498.944 413.856 361.84C133.075 315.392 0.00292969 359.014 0.00292969 359.014L0.188531 328.483Z" fill="#9F2FBA"/>
<path d="M0 359.011C0 359.011 94.96 264.912 407.456 291.168C687.795 314.72 948.39 349.347 1185.12 239.693C1185.12 239.693 1042.66 302.477 682.656 264.314C322.656 226.15 141.347 185.427 0 335.824V359.011Z" fill="#83219B"/>
<path opacity="0.5" d="M0 264.31C0 264.31 132.787 156.89 318.387 176.678C503.987 196.467 710.922 268.08 992.544 276.861C992.544 276.861 802.656 294.464 386.656 241.696C135.197 209.798 0 335.824 0 335.824V264.31Z" fill="#D896FF"/>
<path opacity="0.5" d="M1454.47 63.603C1454.47 63.603 1348.8 294.054 969.056 353.827C675.721 400 315.83 348.409 315.83 348.409C315.83 348.409 620.201 409.088 868.256 398.659C1284.79 381.152 1454.47 228.131 1454.47 228.131V63.603Z" fill="#CC43ED"/>
<path d="M1021.06 261.485C1021.06 261.485 1125.06 259.363 1238.66 201.414C1352.26 143.466 1454.47 32.5088 1454.47 32.5088V0C1454.47 0 1383.46 86.9248 1248.95 176.346C1145.92 244.842 1021.06 261.485 1021.06 261.485Z" fill="#9F2FBA"/>
</svg>
